# Blender v2.76 (sub 0) OBJ File: ''
# www.blender.org
mtllib cubo.mtl
o Cube
v 7.642333 -1.432773 6.706054
v 7.642333 -1.432773 13.191703
v -7.956793 -1.432773 13.191703
v -7.956789 -1.432773 6.706052
v 7.642337 8.515306 6.706055
v 7.642328 8.515306 13.191705
v -7.956795 8.515306 13.191702
v -7.956791 8.515306 6.706054
vn 0.000000 -1.000000 -0.000000
vn 0.000000 1.000000 0.000000
vn 1.000000 0.000000 0.000000
vn -0.000000 -0.000000 1.000000
vn -1.000000 -0.000000 -0.000000
vn 0.000000 0.000000 -1.000000
usemtl Material
s off
f 1//1 2//1 3//1 4//1
f 5//2 8//2 7//2 6//2
f 1//3 5//3 6//3 2//3
f 2//4 6//4 7//4 3//4
f 3//5 7//5 8//5 4//5
f 5//6 1//6 4//6 8//6
