# Blender v2.76 (sub 0) OBJ File: ''
# www.blender.org
mtllib cubo3.mtl
o Cube
v -6.817395 7.277706 -4.690746
v -6.817395 7.277706 10.424083
v -6.817395 9.213285 10.424082
v -6.817395 9.213284 -4.690750
v 5.190612 7.277706 -4.690742
v 5.190612 7.277708 10.424088
v 5.190612 9.213286 10.424080
v 5.190612 9.213285 -4.690747
vn -1.000000 -0.000000 0.000000
vn 1.000000 -0.000000 0.000000
vn 0.000000 -1.000000 0.000000
vn -0.000000 0.000000 1.000000
vn -0.000000 1.000000 0.000000
vn 0.000000 -0.000000 -1.000000
usemtl Material
s off
f 1//1 2//1 3//1 4//1
f 5//2 8//2 7//2 6//2
f 1//3 5//3 6//3 2//3
f 2//4 6//4 7//4 3//4
f 3//5 7//5 8//5 4//5
f 5//6 1//6 4//6 8//6
