# Blender v2.76 (sub 0) OBJ File: 'enfeite_lampada2.blend'
# www.blender.org
mtllib enfeite_lampada2.mtl
o Mesh.001_Mesh.005
v 1.017827 4.435868 -1.944653
v 1.015532 4.453308 -1.944653
v 1.012808 4.452578 -1.937847
v 1.015008 4.435868 -1.937847
v 1.006234 4.450816 -1.935028
v 1.008202 4.435868 -1.935028
v 0.999660 4.449055 -1.937847
v 1.001395 4.435868 -1.937847
v 0.996936 4.448325 -1.944653
v 0.998576 4.435868 -1.944653
v 0.999660 4.449055 -1.951460
v 1.001395 4.435868 -1.951460
v 1.006234 4.450816 -1.954279
v 1.008202 4.435868 -1.954279
v 1.012808 4.452578 -1.951460
v 1.015008 4.435868 -1.951460
v 1.008800 4.469558 -1.944653
v 1.006359 4.468148 -1.937847
v 1.000464 4.464745 -1.935028
v 0.994570 4.461342 -1.937847
v 0.992128 4.459932 -1.944653
v 0.994570 4.461342 -1.951460
v 1.000464 4.464745 -1.954279
v 1.006359 4.468148 -1.951460
v 0.998093 4.483513 -1.944653
v 0.996099 4.481519 -1.937847
v 0.991286 4.476707 -1.935028
v 0.986473 4.471893 -1.937847
v 0.984480 4.469900 -1.944653
v 0.986473 4.471893 -1.951460
v 0.991286 4.476707 -1.954279
v 0.996099 4.481519 -1.951460
v 0.984138 4.494220 -1.944653
v 0.982728 4.491779 -1.937847
v 0.979325 4.485885 -1.935028
v 0.975922 4.479990 -1.937847
v 0.974512 4.477549 -1.944653
v 0.975922 4.479990 -1.951460
v 0.979325 4.485885 -1.954279
v 0.982728 4.491779 -1.951460
v 0.967887 4.500952 -1.944653
v 0.967158 4.498229 -1.937847
v 0.965396 4.491654 -1.935028
v 0.963634 4.485080 -1.937847
v 0.962905 4.482357 -1.944653
v 0.963634 4.485080 -1.951460
v 0.965396 4.491654 -1.954279
v 0.967158 4.498229 -1.951460
v 0.950448 4.503247 -1.944653
v 0.950448 4.500428 -1.937847
v 0.950448 4.493622 -1.935028
v 0.950448 4.486815 -1.937847
v 0.950448 4.483996 -1.944653
v 0.950448 4.486815 -1.951460
v 0.950448 4.493622 -1.954279
v 0.950448 4.500428 -1.951459
v 0.933009 4.500952 -1.944653
v 0.933739 4.498229 -1.937847
v 0.935501 4.491654 -1.935028
v 0.937262 4.485080 -1.937847
v 0.937992 4.482357 -1.944653
v 0.937262 4.485080 -1.951460
v 0.935501 4.491654 -1.954279
v 0.933739 4.498229 -1.951459
v 0.916759 4.494220 -1.944653
v 0.918168 4.491779 -1.937847
v 0.921571 4.485884 -1.935028
v 0.924975 4.479990 -1.937847
v 0.926384 4.477549 -1.944653
v 0.924975 4.479990 -1.951460
v 0.921571 4.485885 -1.954279
v 0.918168 4.491779 -1.951459
v 0.902804 4.483512 -1.944653
v 0.904798 4.481519 -1.937847
v 0.909610 4.476707 -1.935028
v 0.914423 4.471893 -1.937847
v 0.916417 4.469900 -1.944653
v 0.914423 4.471893 -1.951460
v 0.909610 4.476707 -1.954279
v 0.904798 4.481519 -1.951460
v 0.892096 4.469558 -1.944653
v 0.894538 4.468148 -1.937847
v 0.900432 4.464745 -1.935028
v 0.906327 4.461342 -1.937847
v 0.908768 4.459932 -1.944653
v 0.906327 4.461342 -1.951460
v 0.900432 4.464745 -1.954279
v 0.894538 4.468148 -1.951460
v 0.885365 4.453307 -1.944653
v 0.888088 4.452578 -1.937847
v 0.894663 4.450816 -1.935028
v 0.901237 4.449055 -1.937847
v 0.903960 4.448325 -1.944653
v 0.901237 4.449055 -1.951460
v 0.894663 4.450816 -1.954279
v 0.888088 4.452578 -1.951460
v 0.883069 4.435868 -1.944653
v 0.885888 4.435868 -1.937847
v 0.892695 4.435868 -1.935028
v 0.899501 4.435868 -1.937847
v 0.902320 4.435868 -1.944653
v 0.899501 4.435868 -1.951460
v 0.892695 4.435868 -1.954279
v 0.885888 4.435868 -1.951460
v 0.885365 4.418429 -1.944653
v 0.888088 4.419159 -1.937847
v 0.894663 4.420920 -1.935028
v 0.901237 4.422682 -1.937847
v 0.903960 4.423412 -1.944653
v 0.901237 4.422682 -1.951460
v 0.894663 4.420920 -1.954279
v 0.888088 4.419159 -1.951460
v 0.892096 4.402179 -1.944653
v 0.894538 4.403588 -1.937847
v 0.900432 4.406991 -1.935028
v 0.906327 4.410395 -1.937847
v 0.908768 4.411804 -1.944653
v 0.906327 4.410395 -1.951460
v 0.900432 4.406991 -1.954279
v 0.894538 4.403588 -1.951460
v 0.902804 4.388224 -1.944653
v 0.904798 4.390218 -1.937847
v 0.909610 4.395030 -1.935028
v 0.914423 4.399843 -1.937847
v 0.916417 4.401837 -1.944653
v 0.914423 4.399843 -1.951460
v 0.909610 4.395030 -1.954279
v 0.904798 4.390218 -1.951460
v 0.916759 4.377516 -1.944653
v 0.918168 4.379958 -1.937847
v 0.921571 4.385852 -1.935028
v 0.924975 4.391747 -1.937847
v 0.926384 4.394188 -1.944653
v 0.924975 4.391747 -1.951460
v 0.921571 4.385852 -1.954279
v 0.918168 4.379958 -1.951460
v 0.933009 4.370785 -1.944653
v 0.933739 4.373508 -1.937847
v 0.935501 4.380083 -1.935028
v 0.937262 4.386657 -1.937847
v 0.937992 4.389380 -1.944653
v 0.937262 4.386657 -1.951460
v 0.935501 4.380083 -1.954279
v 0.933739 4.373508 -1.951460
v 0.950448 4.368489 -1.944653
v 0.950448 4.371308 -1.937847
v 0.950448 4.378115 -1.935028
v 0.950448 4.384921 -1.937847
v 0.950448 4.387741 -1.944653
v 0.950448 4.384921 -1.951460
v 0.950448 4.378115 -1.954279
v 0.950448 4.371308 -1.951460
v 0.967887 4.370785 -1.944653
v 0.967158 4.373508 -1.937847
v 0.965396 4.380083 -1.935028
v 0.963634 4.386657 -1.937847
v 0.962905 4.389380 -1.944653
v 0.963634 4.386657 -1.951460
v 0.965396 4.380083 -1.954279
v 0.967158 4.373508 -1.951460
v 0.984138 4.377516 -1.944653
v 0.982728 4.379958 -1.937847
v 0.979325 4.385852 -1.935028
v 0.975922 4.391747 -1.937847
v 0.974512 4.394188 -1.944653
v 0.975922 4.391747 -1.951460
v 0.979325 4.385852 -1.954279
v 0.982728 4.379958 -1.951460
v 0.998093 4.388224 -1.944653
v 0.996099 4.390218 -1.937847
v 0.991286 4.395030 -1.935028
v 0.986473 4.399843 -1.937847
v 0.984480 4.401837 -1.944653
v 0.986473 4.399843 -1.951460
v 0.991286 4.395030 -1.954279
v 0.996099 4.390218 -1.951460
v 1.008800 4.402179 -1.944653
v 1.006359 4.403588 -1.937847
v 1.000464 4.406991 -1.935028
v 0.994570 4.410395 -1.937847
v 0.992128 4.411804 -1.944653
v 0.994570 4.410395 -1.951460
v 1.000464 4.406991 -1.954279
v 1.006359 4.403588 -1.951460
v 1.015532 4.418429 -1.944653
v 1.012808 4.419159 -1.937847
v 1.006234 4.420921 -1.935028
v 0.999660 4.422682 -1.937847
v 0.996936 4.423412 -1.944653
v 0.999660 4.422682 -1.951460
v 1.006234 4.420921 -1.954279
v 1.012808 4.419159 -1.951460
vt 0.496005 0.368314
vt 0.501117 0.368345
vt 0.500977 0.383373
vt 0.496710 0.383349
vt 0.492441 0.383324
vt 0.490893 0.368283
vt 0.489233 0.352651
vt 0.495249 0.352689
vt 0.501263 0.352728
vt 0.485780 0.368251
vt 0.488173 0.383299
vt 0.483903 0.383275
vt 0.480666 0.368220
vt 0.477201 0.352575
vt 0.483217 0.352613
vt 0.533490 0.343209
vt 0.538309 0.343240
vt 0.535840 0.352946
vt 0.531330 0.352917
vt 0.525318 0.352880
vt 0.527064 0.343168
vt 0.527334 0.337450
vt 0.533813 0.337492
vt 0.538672 0.337522
vt 0.520638 0.343127
vt 0.519305 0.352842
vt 0.513291 0.352804
vt 0.514211 0.343086
vt 0.514374 0.337367
vt 0.520854 0.337409
vt 0.507784 0.343045
vt 0.507278 0.352766
vt 0.501356 0.343004
vt 0.501413 0.337282
vt 0.507894 0.337325
vt 0.494928 0.342962
vt 0.488499 0.342920
vt 0.488448 0.337197
vt 0.494931 0.337240
vt 0.482070 0.342879
vt 0.475639 0.342837
vt 0.475482 0.337112
vt 0.481965 0.337154
vt 0.532964 0.333878
vt 0.537690 0.333908
vt 0.526661 0.333837
vt 0.526019 0.331550
vt 0.532154 0.331590
vt 0.536756 0.331620
vt 0.520359 0.333797
vt 0.514056 0.333756
vt 0.513746 0.331470
vt 0.519882 0.331511
vt 0.507752 0.333714
vt 0.501448 0.333673
vt 0.501471 0.331389
vt 0.507609 0.331430
vt 0.495144 0.333631
vt 0.488838 0.333589
vt 0.489194 0.331308
vt 0.495333 0.331349
vt 0.482532 0.333547
vt 0.476226 0.333505
vt 0.476914 0.331225
vt 0.483055 0.331267
vt 0.532598 0.329850
vt 0.537263 0.329881
vt 0.526377 0.329810
vt 0.526369 0.326914
vt 0.532580 0.326954
vt 0.537239 0.326985
vt 0.520156 0.329770
vt 0.513934 0.329729
vt 0.513944 0.326832
vt 0.520157 0.326873
vt 0.507711 0.329688
vt 0.501489 0.329646
vt 0.501518 0.326749
vt 0.507732 0.326791
vt 0.495265 0.329605
vt 0.489041 0.329563
vt 0.489089 0.326666
vt 0.495304 0.326707
vt 0.482816 0.329521
vt 0.476591 0.329479
vt 0.476658 0.326581
vt 0.482874 0.326623
vt 0.530388 0.321197
vt 0.534709 0.321225
vt 0.524627 0.321159
vt 0.522988 0.314792
vt 0.528323 0.314827
vt 0.532324 0.314854
vt 0.518865 0.321121
vt 0.513103 0.321082
vt 0.512316 0.314719
vt 0.517652 0.314755
vt 0.507340 0.321043
vt 0.501577 0.321004
vt 0.501643 0.314646
vt 0.506979 0.314683
vt 0.495813 0.320965
vt 0.490049 0.320926
vt 0.490967 0.314572
vt 0.496305 0.314609
vt 0.484284 0.320886
vt 0.478519 0.320846
vt 0.480290 0.314497
vt 0.485629 0.314535
vt 0.528688 0.310094
vt 0.532737 0.310121
vt 0.523290 0.310057
vt 0.523475 0.303702
vt 0.528902 0.303740
vt 0.532973 0.303768
vt 0.517891 0.310020
vt 0.512492 0.309983
vt 0.512618 0.303627
vt 0.518047 0.303665
vt 0.507092 0.309946
vt 0.501692 0.309908
vt 0.501760 0.303551
vt 0.507189 0.303589
vt 0.496291 0.309871
vt 0.490891 0.309833
vt 0.490900 0.303474
vt 0.496330 0.303513
vt 0.485489 0.309794
vt 0.480088 0.309756
vt 0.480039 0.303396
vt 0.485470 0.303436
vt 0.526386 0.292508
vt 0.530061 0.292534
vt 0.521486 0.292474
vt 0.519745 0.278173
vt 0.524178 0.278205
vt 0.527504 0.278229
vt 0.516585 0.292440
vt 0.511684 0.292405
vt 0.510876 0.278108
vt 0.515310 0.278141
vt 0.506783 0.292370
vt 0.501881 0.292335
vt 0.502006 0.278043
vt 0.506441 0.278076
vt 0.496980 0.292300
vt 0.492077 0.292264
vt 0.493136 0.277978
vt 0.497571 0.278011
vt 0.487175 0.292229
vt 0.482272 0.292193
vt 0.484264 0.277911
vt 0.488700 0.277945
vt 0.525320 0.262634
vt 0.528804 0.262660
vt 0.520673 0.262600
vt 0.523170 0.249861
vt 0.528428 0.249901
vt 0.532372 0.249931
vt 0.516026 0.262565
vt 0.511379 0.262530
vt 0.512652 0.249780
vt 0.517911 0.249820
vt 0.506732 0.262495
vt 0.502085 0.262460
vt 0.502132 0.249699
vt 0.507392 0.249740
vt 0.497437 0.262425
vt 0.492789 0.262389
vt 0.491612 0.249618
vt 0.496872 0.249658
vt 0.488141 0.262353
vt 0.483492 0.262317
vt 0.481092 0.249535
vt 0.486352 0.249576
vt 0.532122 0.244107
vt 0.536615 0.244142
vt 0.526132 0.244061
vt 0.529600 0.237271
vt 0.536438 0.237324
vt 0.541566 0.237364
vt 0.520141 0.244015
vt 0.514150 0.243969
vt 0.515923 0.237164
vt 0.522762 0.237218
vt 0.508158 0.243922
vt 0.502166 0.243876
vt 0.502245 0.237058
vt 0.509084 0.237111
vt 0.496174 0.243829
vt 0.490182 0.243782
vt 0.488566 0.236950
vt 0.495405 0.237004
vt 0.484189 0.243735
vt 0.478197 0.243687
vt 0.474886 0.236842
vt 0.481726 0.236896
vt 0.541411 0.221620
vt 0.547258 0.221666
vt 0.533615 0.221558
vt 0.536799 0.205913
vt 0.545346 0.205981
vt 0.551756 0.206032
vt 0.525819 0.221497
vt 0.518022 0.221436
vt 0.519705 0.205778
vt 0.528252 0.205846
vt 0.510225 0.221375
vt 0.502428 0.221313
vt 0.502610 0.205643
vt 0.511158 0.205710
vt 0.494630 0.221252
vt 0.486832 0.221190
vt 0.485513 0.205507
vt 0.494061 0.205575
vt 0.479034 0.221128
vt 0.471236 0.221066
vt 0.468416 0.205370
vt 0.476964 0.205438
vt 0.546546 0.199394
vt 0.553124 0.199447
vt 0.537775 0.199325
vt 0.538667 0.194354
vt 0.547647 0.194426
vt 0.554381 0.194479
vn 0.917100 0.120700 0.379900
vn 0.382200 0.050300 0.922700
vn -0.382200 -0.050300 0.922700
vn -0.917100 -0.120700 0.379900
vn -0.917100 -0.120700 -0.379900
vn -0.382200 -0.050300 -0.922700
vn 0.382200 0.050300 -0.922700
vn 0.917100 0.120700 -0.379900
vn 0.854600 0.354000 0.379900
vn 0.356100 0.147500 0.922700
vn -0.356100 -0.147500 0.922700
vn -0.854600 -0.354000 0.380000
vn -0.854600 -0.354000 -0.379900
vn -0.356100 -0.147500 -0.922700
vn 0.356100 0.147500 -0.922700
vn 0.854600 0.354000 -0.379900
vn 0.733900 0.563100 0.379900
vn 0.305800 0.234700 0.922700
vn -0.305800 -0.234700 0.922700
vn -0.733900 -0.563100 0.379900
vn -0.733900 -0.563100 -0.379800
vn -0.305800 -0.234700 -0.922700
vn 0.305800 0.234600 -0.922700
vn 0.733900 0.563100 -0.379900
vn 0.563100 0.733900 0.379900
vn 0.234700 0.305800 0.922700
vn -0.234700 -0.305800 0.922700
vn -0.563200 -0.733900 0.379900
vn -0.563200 -0.733900 -0.379800
vn -0.234700 -0.305800 -0.922700
vn 0.234700 0.305800 -0.922700
vn 0.563100 0.733900 -0.379900
vn 0.354000 0.854600 0.379900
vn 0.147500 0.356100 0.922700
vn -0.147500 -0.356100 0.922700
vn -0.354000 -0.854600 0.379900
vn -0.354000 -0.854600 -0.379900
vn -0.147500 -0.356100 -0.922700
vn 0.147500 0.356100 -0.922700
vn 0.354000 0.854600 -0.379800
vn 0.120700 0.917200 0.379800
vn 0.050300 0.382200 0.922700
vn -0.050300 -0.382200 0.922700
vn -0.120700 -0.917100 0.379900
vn -0.120700 -0.917100 -0.379900
vn -0.050300 -0.382200 -0.922700
vn 0.050300 0.382200 -0.922700
vn 0.120700 0.917200 -0.379800
vn -0.120700 0.917200 0.379800
vn -0.050300 0.382200 0.922700
vn 0.050300 -0.382200 0.922700
vn 0.120700 -0.917100 0.379900
vn 0.120700 -0.917200 -0.379800
vn 0.050300 -0.382200 -0.922700
vn -0.050300 0.382300 -0.922700
vn -0.120700 0.917200 -0.379800
vn -0.354000 0.854600 0.379900
vn -0.147500 0.356100 0.922700
vn 0.147500 -0.356100 0.922700
vn 0.354000 -0.854600 0.379900
vn 0.354000 -0.854600 -0.379800
vn 0.147500 -0.356100 -0.922700
vn -0.147500 0.356200 -0.922700
vn -0.354000 0.854600 -0.379900
vn -0.563100 0.733900 0.379900
vn -0.234700 0.305800 0.922700
vn 0.234600 -0.305800 0.922700
vn 0.563200 -0.733900 0.379900
vn 0.563200 -0.733900 -0.379800
vn 0.234600 -0.305800 -0.922700
vn -0.234700 0.305900 -0.922700
vn -0.563100 0.733900 -0.379800
vn -0.733900 0.563100 0.379900
vn -0.305800 0.234700 0.922700
vn 0.305800 -0.234600 0.922700
vn 0.733900 -0.563100 0.379900
vn 0.733900 -0.563100 -0.379800
vn 0.305800 -0.234600 -0.922700
vn -0.305900 0.234700 -0.922700
vn -0.733900 0.563100 -0.379800
vn -0.854600 0.354000 0.379900
vn -0.356100 0.147500 0.922700
vn 0.356100 -0.147500 0.922700
vn 0.854600 -0.354000 0.379900
vn 0.854600 -0.354000 -0.379800
vn 0.356100 -0.147500 -0.922700
vn -0.356100 0.147500 -0.922700
vn -0.854600 0.354000 -0.379800
vn -0.917100 0.120700 0.379900
vn -0.382100 0.050300 0.922700
vn 0.382200 -0.050300 0.922700
vn 0.917100 -0.120700 0.379900
vn 0.917100 -0.120700 -0.379800
vn 0.382200 -0.050300 -0.922700
vn -0.382100 0.050300 -0.922700
vn -0.917100 0.120700 -0.379800
vn -0.917100 -0.120800 0.379900
vn -0.382100 -0.050300 0.922700
vn 0.917200 0.120700 -0.379800
vn -0.382100 -0.050300 -0.922700
vn -0.917100 -0.120800 -0.379800
vn -0.854600 -0.354000 0.379900
vn -0.854600 -0.354000 -0.379800
vn -0.305900 -0.234700 0.922700
vn 0.305800 0.234600 0.922700
vn 0.733900 0.563100 -0.379800
vn -0.733900 -0.563100 -0.379900
vn -0.563100 -0.733800 0.380000
vn -0.234700 -0.305900 0.922700
vn 0.234600 0.305800 0.922700
vn 0.563200 0.733900 -0.379800
vn 0.234600 0.305800 -0.922700
vn -0.563100 -0.733800 -0.379900
vn 0.354000 0.854600 0.379800
vn 0.354000 0.854700 -0.379800
vn -0.120800 -0.917100 0.379900
vn -0.050300 -0.382100 0.922700
vn 0.120700 0.917100 0.379900
vn 0.120700 0.917100 -0.379900
vn -0.050300 -0.382100 -0.922700
vn -0.120800 -0.917100 -0.379800
vn 0.120800 -0.917100 0.379900
vn 0.050300 -0.382100 0.922700
vn -0.120700 0.917100 0.379900
vn -0.120700 0.917100 -0.379900
vn -0.050300 0.382200 -0.922700
vn 0.050300 -0.382100 -0.922700
vn 0.120800 -0.917100 -0.379900
vn -0.354000 0.854500 0.380100
vn -0.354000 0.854500 -0.380100
vn -0.147500 0.356100 -0.922700
vn 0.563100 -0.733800 0.380000
vn 0.234700 -0.305800 0.922700
vn -0.234600 0.305800 0.922700
vn -0.563200 0.733900 0.379800
vn -0.563200 0.733900 -0.379800
vn -0.234700 0.305800 -0.922700
vn 0.234700 -0.305800 -0.922700
vn 0.563100 -0.733900 -0.380000
vn 0.305800 -0.234700 0.922700
vn -0.733900 0.563100 -0.379900
vn -0.305800 0.234600 -0.922700
vn -0.854600 0.354000 0.380000
vn -0.854600 0.354000 -0.380000
vn -0.382200 0.050300 0.922700
vn -0.917100 0.120700 -0.379900
vn -0.382200 0.050300 -0.922700
vn 0.917100 -0.120700 -0.379900
usemtl breakfast_room:White_Plastic
s 1
f 1/1/1 2/2/1 3/3/1 4/4/1
f 4/1/2 3/4/2 5/5/2 6/6/2
f 6/1/3 5/6/3 7/7/3 8/8/3
f 8/1/4 7/8/4 9/9/4 10/2/4
f 10/10/5 9/6/5 11/5/5 12/11/5
f 12/10/6 11/11/6 13/12/6 14/13/6
f 14/10/7 13/13/7 15/14/7 16/15/7
f 1/10/8 16/15/8 15/7/8 2/6/8
f 2/16/9 17/17/9 18/18/9 3/19/9
f 3/16/10 18/19/10 19/20/10 5/21/10
f 5/16/11 19/21/11 20/22/11 7/23/11
f 7/16/12 20/23/12 21/24/12 9/17/12
f 9/25/13 21/21/13 22/20/13 11/26/13
f 11/25/14 22/26/14 23/27/14 13/28/14
f 13/25/15 23/28/15 24/29/15 15/30/15
f 15/25/16 24/30/16 17/22/16 2/21/16
f 17/31/17 25/28/17 26/27/17 18/32/17
f 18/31/18 26/32/18 27/9/18 19/33/18
f 19/31/19 27/33/19 28/34/19 20/35/19
f 20/31/20 28/35/20 29/29/20 21/28/20
f 21/36/21 29/33/21 30/9/21 22/8/21
f 22/36/22 30/8/22 31/7/22 23/37/22
f 23/36/23 31/37/23 32/38/23 24/39/23
f 24/36/24 32/39/24 25/34/24 17/33/24
f 25/40/25 33/37/25 34/7/25 26/15/25
f 26/40/26 34/15/26 35/14/26 27/41/26
f 27/40/27 35/41/27 36/42/27 28/43/27
f 28/40/28 36/43/28 37/38/28 29/37/28
f 29/44/29 37/45/29 38/24/29 30/23/29
f 30/44/30 38/23/30 39/22/30 31/46/30
f 31/44/31 39/46/31 40/47/31 32/48/31
f 32/44/32 40/48/32 33/49/32 25/45/32
f 33/50/33 41/46/33 42/22/33 34/30/33
f 34/50/34 42/30/34 43/29/34 35/51/34
f 35/50/35 43/51/35 44/52/35 36/53/35
f 36/50/36 44/53/36 45/47/36 37/46/36
f 37/54/37 45/51/37 46/29/37 38/35/37
f 38/54/38 46/35/38 47/34/38 39/55/38
f 39/54/39 47/55/39 48/56/39 40/57/39
f 40/54/40 48/57/40 41/52/40 33/51/40
f 41/58/41 49/55/41 50/34/41 42/39/41
f 42/58/42 50/39/42 51/38/42 43/59/42
f 43/58/43 51/59/43 52/60/43 44/61/43
f 44/58/44 52/61/44 53/56/44 45/55/44
f 45/62/45 53/59/45 54/38/45 46/43/45
f 46/62/46 54/43/46 55/42/46 47/63/46
f 47/62/47 55/63/47 56/64/47 48/65/47
f 48/62/48 56/65/48 49/60/48 41/59/48
f 49/66/49 57/67/49 58/49/49 50/48/49
f 50/66/50 58/48/50 59/47/50 51/68/50
f 51/66/51 59/68/51 60/69/51 52/70/51
f 52/66/52 60/70/52 61/71/52 53/67/52
f 53/72/53 61/68/53 62/47/53 54/53/53
f 54/72/54 62/53/54 63/52/54 55/73/54
f 55/72/55 63/73/55 64/74/55 56/75/55
f 56/72/56 64/75/56 57/69/56 49/68/56
f 57/76/57 65/73/57 66/52/57 58/57/57
f 58/76/58 66/57/58 67/56/58 59/77/58
f 59/76/59 67/77/59 68/78/59 60/79/59
f 60/76/60 68/79/60 69/74/60 61/73/60
f 61/80/61 69/77/61 70/56/61 62/61/61
f 62/80/62 70/61/62 71/60/62 63/81/62
f 63/80/63 71/81/63 72/82/63 64/83/63
f 64/80/64 72/83/64 65/78/64 57/77/64
f 65/84/65 73/81/65 74/60/65 66/65/65
f 66/84/66 74/65/66 75/64/66 67/85/66
f 67/84/67 75/85/67 76/86/67 68/87/67
f 68/84/68 76/87/68 77/82/68 69/81/68
f 69/88/69 77/89/69 78/71/69 70/70/69
f 70/88/70 78/70/70 79/69/70 71/90/70
f 71/88/71 79/90/71 80/91/71 72/92/71
f 72/88/72 80/92/72 73/93/72 65/89/72
f 73/94/73 81/90/73 82/69/73 74/75/73
f 74/94/74 82/75/74 83/74/74 75/95/74
f 75/94/75 83/95/75 84/96/75 76/97/75
f 76/94/76 84/97/76 85/91/76 77/90/76
f 77/98/77 85/95/77 86/74/77 78/79/77
f 78/98/78 86/79/78 87/78/78 79/99/78
f 79/98/79 87/99/79 88/100/79 80/101/79
f 80/98/80 88/101/80 81/96/80 73/95/80
f 81/102/81 89/99/81 90/78/81 82/83/81
f 82/102/82 90/83/82 91/82/82 83/103/82
f 83/102/83 91/103/83 92/104/83 84/105/83
f 84/102/84 92/105/84 93/100/84 85/99/84
f 85/106/85 93/103/85 94/82/85 86/87/85
f 86/106/86 94/87/86 95/86/86 87/107/86
f 87/106/87 95/107/87 96/108/87 88/109/87
f 88/106/88 96/109/88 89/104/88 81/103/88
f 89/110/89 97/111/89 98/93/89 90/92/89
f 90/110/90 98/92/90 99/91/90 91/112/90
f 91/110/91 99/112/91 100/113/91 92/114/91
f 92/110/92 100/114/92 101/115/92 93/111/92
f 93/116/93 101/112/93 102/91/93 94/97/93
f 94/116/94 102/97/94 103/96/94 95/117/94
f 95/116/95 103/117/95 104/118/95 96/119/95
f 96/116/96 104/119/96 97/113/96 89/112/96
f 97/120/97 105/117/97 106/96/97 98/101/97
f 98/120/98 106/101/98 107/100/98 99/121/98
f 99/120/2 107/121/2 108/122/2 100/123/2
f 100/120/1 108/123/1 109/118/1 101/117/1
f 101/124/99 109/121/99 110/100/99 102/105/99
f 102/124/7 110/105/7 111/104/7 103/125/7
f 103/124/100 111/125/100 112/126/100 104/127/100
f 104/124/101 112/127/101 105/122/101 97/121/101
f 105/128/102 113/125/102 114/104/102 106/109/102
f 106/128/11 114/109/11 115/108/11 107/129/11
f 107/128/10 115/129/10 116/130/10 108/131/10
f 108/128/9 116/131/9 117/126/9 109/125/9
f 109/132/16 117/133/16 118/115/16 110/114/16
f 110/132/15 118/114/15 119/113/15 111/134/15
f 111/132/14 119/134/14 120/135/14 112/136/14
f 112/132/103 120/136/103 113/137/103 105/133/103
f 113/138/20 121/134/20 122/113/20 114/119/20
f 114/138/104 122/119/104 123/118/104 115/139/104
f 115/138/105 123/139/105 124/140/105 116/141/105
f 116/138/17 124/141/17 125/135/17 117/134/17
f 117/142/106 125/139/106 126/118/106 118/123/106
f 118/142/23 126/123/23 127/122/23 119/143/23
f 119/142/22 127/143/22 128/144/22 120/145/22
f 120/142/107 128/145/107 121/140/107 113/139/107
f 121/146/108 129/143/108 130/122/108 122/127/108
f 122/146/109 130/127/109 131/126/109 123/147/109
f 123/146/110 131/147/110 132/148/110 124/149/110
f 124/146/25 132/149/25 133/144/25 125/143/25
f 125/150/111 133/147/111 134/126/111 126/131/111
f 126/150/112 134/131/112 135/130/112 127/151/112
f 127/150/30 135/151/30 136/152/30 128/153/30
f 128/150/113 136/153/113 129/148/113 121/147/113
f 129/154/36 137/155/36 138/137/36 130/136/36
f 130/154/35 138/136/35 139/135/35 131/156/35
f 131/154/34 139/156/34 140/157/34 132/158/34
f 132/154/114 140/158/114 141/159/114 133/155/114
f 133/160/115 141/156/115 142/135/115 134/141/115
f 134/160/39 142/141/39 143/140/39 135/161/39
f 135/160/38 143/161/38 144/162/38 136/163/38
f 136/160/37 144/163/37 137/157/37 129/156/37
f 137/164/116 145/161/116 146/140/116 138/145/116
f 138/164/117 146/145/117 147/144/117 139/165/117
f 139/164/42 147/165/42 148/166/42 140/167/42
f 140/164/118 148/167/118 149/162/118 141/161/118
f 141/168/119 149/165/119 150/144/119 142/149/119
f 142/168/47 150/149/47 151/148/47 143/169/47
f 143/168/120 151/169/120 152/170/120 144/171/120
f 144/168/121 152/171/121 145/166/121 137/165/121
f 145/172/122 153/169/122 154/148/122 146/153/122
f 146/172/123 154/153/123 155/152/123 147/173/123
f 147/172/50 155/173/50 156/174/50 148/175/50
f 148/172/124 156/175/124 157/170/124 149/169/124
f 149/176/125 157/177/125 158/159/125 150/158/125
f 150/176/126 158/158/126 159/157/126 151/178/126
f 151/176/127 159/178/127 160/179/127 152/180/127
f 152/176/128 160/180/128 153/181/128 145/177/128
f 153/182/60 161/178/60 162/157/60 154/163/60
f 154/182/59 162/163/59 163/162/59 155/183/59
f 155/182/58 163/183/58 164/184/58 156/185/58
f 156/182/129 164/185/129 165/179/129 157/178/129
f 157/186/130 165/183/130 166/162/130 158/167/130
f 158/186/131 166/167/131 167/166/131 159/187/131
f 159/186/62 167/187/62 168/188/62 160/189/62
f 160/186/61 168/189/61 161/184/61 153/183/61
f 161/190/132 169/187/132 170/166/132 162/171/132
f 162/190/133 170/171/133 171/170/133 163/191/133
f 163/190/134 171/191/134 172/192/134 164/193/134
f 164/190/135 172/193/135 173/188/135 165/187/135
f 165/194/136 173/191/136 174/170/136 166/175/136
f 166/194/137 174/175/137 175/174/137 167/195/137
f 167/194/138 175/195/138 176/196/138 168/197/138
f 168/194/139 176/197/139 169/192/139 161/191/139
f 169/198/76 177/199/76 178/181/76 170/180/76
f 170/198/140 178/180/140 179/179/140 171/200/140
f 171/198/74 179/200/74 180/201/74 172/202/74
f 172/198/73 180/202/73 181/203/73 173/199/73
f 173/204/141 181/200/141 182/179/141 174/185/141
f 174/204/142 182/185/142 183/184/142 175/205/142
f 175/204/78 183/205/78 184/206/78 176/207/78
f 176/204/77 184/207/77 177/201/77 169/200/77
f 177/208/84 185/205/84 186/184/84 178/189/84
f 178/208/83 186/189/83 187/188/83 179/209/83
f 179/208/82 187/209/82 188/210/82 180/211/82
f 180/208/143 188/211/143 189/206/143 181/205/143
f 181/212/144 189/209/144 190/188/144 182/193/144
f 182/212/87 190/193/87 191/192/87 183/213/87
f 183/212/86 191/213/86 192/214/86 184/215/86
f 184/212/85 192/215/85 185/210/85 177/209/85
f 185/216/92 1/213/92 4/192/92 186/197/92
f 186/216/91 4/197/91 6/196/91 187/217/91
f 187/216/145 6/217/145 8/218/145 188/219/145
f 188/216/89 8/219/89 10/214/89 189/213/89
f 189/220/146 10/221/146 12/203/146 190/202/146
f 190/220/147 12/202/147 14/201/147 191/222/147
f 191/220/94 14/222/94 16/223/94 192/224/94
f 192/220/148 16/224/148 1/225/148 185/221/148
