# Blender v2.76 (sub 0) OBJ File: 'persiana.blend'
# www.blender.org
mtllib persiana.mtl
o Mesh.017
v 5.030633 1.960030 2.913640
v 5.263287 1.960030 2.913640
v 5.263287 1.960030 -4.140110
v 5.030633 1.960030 -4.140110
vt 0.000000 0.000000
vt 1.000000 0.000000
vt 1.000000 1.000000
vt 0.000000 1.000000
vn 0.000000 1.000000 0.000000
usemtl breakfast_room:Paint___White_Matt
s 1
f 1/1/1 2/2/1 3/3/1 4/4/1
o Mesh.016
v 5.030633 2.560030 2.913640
v 5.263287 2.560030 2.913640
v 5.263287 2.560030 -4.140110
v 5.030633 2.560030 -4.140110
vt 0.000000 0.000000
vt 1.000000 0.000000
vt 1.000000 1.000000
vt 0.000000 1.000000
vn 0.000000 1.000000 0.000000
usemtl breakfast_room:Paint___White_Matt
s 1
f 5/5/2 6/6/2 7/7/2 8/8/2
o Mesh.015
v 5.030633 2.260030 2.913640
v 5.263287 2.260030 2.913640
v 5.263287 2.260030 -4.140110
v 5.030633 2.260030 -4.140110
vt 0.000000 0.000000
vt 1.000000 0.000000
vt 1.000000 1.000000
vt 0.000000 1.000000
vn 0.000000 1.000000 0.000000
usemtl breakfast_room:Paint___White_Matt
s 1
f 9/9/3 10/10/3 11/11/3 12/12/3
o Mesh.014
v 5.030633 2.860030 2.913640
v 5.263287 2.860030 2.913640
v 5.263287 2.860030 -4.140110
v 5.030633 2.860030 -4.140110
vt 0.000000 0.000000
vt 1.000000 0.000000
vt 1.000000 1.000000
vt 0.000000 1.000000
vn 0.000000 1.000000 0.000000
usemtl breakfast_room:Paint___White_Matt
s 1
f 13/13/4 14/14/4 15/15/4 16/16/4
o Mesh.013
v 5.263287 2.860030 2.913640
v 5.030633 3.160030 2.913640
v 5.263287 3.160030 2.913640
v 5.263287 3.160030 -4.140110
v 5.030633 3.160030 -4.140110
vt 0.000000 0.000000
vt 1.000000 0.000000
vt 1.000000 1.000000
vt 0.000000 1.000000
vn 0.000000 1.000000 0.000000
usemtl breakfast_room:Paint___White_Matt
s 1
f 18/17/5 19/18/5 20/19/5 21/20/5
o Mesh.012
v 5.030633 3.460030 2.913640
v 5.263287 3.460030 2.913640
v 5.263287 3.460030 -4.140110
v 5.030633 3.460030 -4.140110
vt 0.000000 0.000000
vt 1.000000 0.000000
vt 1.000000 1.000000
vt 0.000000 1.000000
vn 0.000000 1.000000 0.000000
usemtl breakfast_room:Paint___White_Matt
s 1
f 22/21/6 23/22/6 24/23/6 25/24/6
o Mesh.011
v 5.030633 3.760030 2.913640
v 5.263287 3.760030 2.913640
v 5.263287 3.760030 -4.140110
v 5.030633 3.760030 -4.140110
vt 0.000000 0.000000
vt 1.000000 0.000000
vt 1.000000 1.000000
vt 0.000000 1.000000
vn 0.000000 1.000000 0.000000
usemtl breakfast_room:Paint___White_Matt
s 1
f 26/25/7 27/26/7 28/27/7 29/28/7
o Mesh.010
v 5.030633 4.360030 2.913640
v 5.263287 4.360030 2.913640
v 5.263287 4.360030 -4.140110
v 5.030633 4.360030 -4.140110
vt 0.000000 0.000000
vt 1.000000 0.000000
vt 1.000000 1.000000
vt 0.000000 1.000000
vn 0.000000 1.000000 0.000000
usemtl breakfast_room:Paint___White_Matt
s 1
f 30/29/8 31/30/8 32/31/8 33/32/8
o Mesh.009
v 5.030633 4.060030 2.913640
v 5.263287 4.060030 2.913640
v 5.263287 4.060030 -4.140110
v 5.030633 4.060030 -4.140110
vt 0.000000 0.000000
vt 1.000000 0.000000
vt 1.000000 1.000000
vt 0.000000 1.000000
vn 0.000000 1.000000 0.000000
usemtl breakfast_room:Paint___White_Matt
s 1
f 34/33/9 35/34/9 36/35/9 37/36/9
o Mesh.008
v 5.030633 4.660030 2.913640
v 5.263287 4.660030 2.913640
v 5.263287 4.660030 -4.140110
v 5.030633 4.660030 -4.140110
vt 0.000000 0.000000
vt 1.000000 0.000000
vt 1.000000 1.000000
vt 0.000000 1.000000
vn 0.000000 1.000000 0.000000
usemtl breakfast_room:Paint___White_Matt
s 1
f 38/37/10 39/38/10 40/39/10 41/40/10
o Mesh.007
v 5.030633 4.960030 2.913640
v 5.263287 4.960030 2.913640
v 5.263287 4.960030 -4.140110
v 5.030633 4.960030 -4.140110
vt 0.000000 0.000000
vt 1.000000 0.000000
vt 1.000000 1.000000
vt 0.000000 1.000000
vn 0.000000 1.000000 0.000000
usemtl breakfast_room:Paint___White_Matt
s 1
f 42/41/11 43/42/11 44/43/11 45/44/11
o Mesh.006
v 5.030633 5.260030 2.913640
v 5.263287 5.260030 2.913640
v 5.263287 5.260030 -4.140110
v 5.030633 5.260030 -4.140110
vt 0.000000 0.000000
vt 1.000000 0.000000
vt 1.000000 1.000000
vt 0.000000 1.000000
vn 0.000000 1.000000 0.000000
usemtl breakfast_room:Paint___White_Matt
s 1
f 46/45/12 47/46/12 48/47/12 49/48/12
o Mesh.005
v 5.030633 5.560030 2.913640
v 5.263287 5.560030 2.913640
v 5.263287 5.560030 -4.140110
v 5.030633 5.560030 -4.140110
vt 0.000000 0.000000
vt 1.000000 0.000000
vt 1.000000 1.000000
vt 0.000000 1.000000
vn 0.000000 1.000000 0.000000
usemtl breakfast_room:Paint___White_Matt
s 1
f 50/49/13 51/50/13 52/51/13 53/52/13
o Mesh.004
v 5.030633 5.860030 2.913640
v 5.263287 5.860030 2.913640
v 5.263287 5.860030 -4.140110
v 5.030633 5.860030 -4.140110
vt 0.000000 0.000000
vt 1.000000 0.000000
vt 1.000000 1.000000
vt 0.000000 1.000000
vn 0.000000 1.000000 0.000000
usemtl breakfast_room:Paint___White_Matt
s 1
f 54/53/14 55/54/14 56/55/14 57/56/14
o Mesh.003
v 5.030633 6.160030 2.913640
v 5.263287 6.160030 2.913640
v 5.263287 6.160030 -4.140110
v 5.030633 6.160030 -4.140110
vt 0.000000 0.000000
vt 1.000000 0.000000
vt 1.000000 1.000000
vt 0.000000 1.000000
vn 0.000000 1.000000 0.000000
usemtl breakfast_room:Paint___White_Matt
s 1
f 58/57/15 59/58/15 60/59/15 61/60/15
o Mesh.002
v 5.030633 6.460030 2.913640
v 5.263287 6.460030 2.913640
v 5.263287 6.460030 -4.140110
v 5.030633 6.460030 -4.140110
vt 0.000000 0.000000
vt 1.000000 0.000000
vt 1.000000 1.000000
vt 0.000000 1.000000
vn 0.000000 1.000000 0.000000
usemtl breakfast_room:Paint___White_Matt
s 1
f 62/61/16 63/62/16 64/63/16 65/64/16
o Mesh.001
v 5.030633 6.760030 2.913640
v 5.263287 6.760030 2.913640
v 5.263287 6.760030 -4.140110
v 5.030633 6.760030 -4.140110
vt 0.000000 0.000000
vt 1.000000 0.000000
vt 1.000000 1.000000
vt 0.000000 1.000000
vn 0.000000 1.000000 0.000000
usemtl breakfast_room:Paint___White_Matt
s 1
f 66/65/17 67/66/17 68/67/17 69/68/17
