# Blender v2.76 (sub 0) OBJ File: 'quadro.blend'
# www.blender.org
mtllib quadro.mtl
o Mesh.001_Mesh.006
v -1.698083 2.513986 -4.325232
v -1.698083 5.532188 -4.325231
v -1.697623 5.532188 -4.505557
v -1.697622 2.513986 -4.505558
v -1.686568 2.513986 -4.313659
v 0.443298 2.513986 -4.308241
v 0.443298 5.532188 -4.308240
v -1.686569 5.532188 -4.313658
v -1.686540 5.543732 -4.325202
v 0.443326 5.543732 -4.319785
v 0.443787 5.543732 -4.500111
v -1.686082 5.543732 -4.505527
v 0.454871 5.532188 -4.319756
v 0.454871 2.513986 -4.319756
v 0.455330 2.513986 -4.500082
v 0.455330 5.532188 -4.500081
v -1.686540 2.502442 -4.325202
v -1.686550 2.503321 -4.320786
v -1.691079 2.504382 -4.320685
v -1.690958 2.503321 -4.325213
v -1.686559 2.505824 -4.317040
v -1.690856 2.506411 -4.317637
v -1.694126 2.506411 -4.320923
v -1.694701 2.505824 -4.325222
v -1.693220 2.507321 -4.318555
v -1.690984 2.513986 -4.314548
v -1.691091 2.509458 -4.315609
v -1.686566 2.509569 -4.314537
v -1.694723 2.513986 -4.317060
v -1.694134 2.509688 -4.317646
v -1.697205 2.509569 -4.325228
v -1.696155 2.509458 -4.320698
v -1.697217 2.513986 -4.320812
v -1.697216 5.532188 -4.320810
v -1.696157 5.536716 -4.320697
v -1.697205 5.536605 -4.325229
v -1.694723 5.532188 -4.317059
v -1.694136 5.536487 -4.317646
v -1.694126 5.539763 -4.320921
v -1.694702 5.540350 -4.325222
v -1.693220 5.538853 -4.318553
v -1.686566 5.536605 -4.314537
v -1.691091 5.536716 -4.315609
v -1.690984 5.532188 -4.314548
v -1.686560 5.540350 -4.317039
v -1.690856 5.539763 -4.317636
v -1.690957 5.542853 -4.325212
v -1.691079 5.541792 -4.320683
v -1.686551 5.542853 -4.320784
v 0.443316 5.542853 -4.315367
v 0.447843 5.541792 -4.315245
v 0.447745 5.542853 -4.319774
v 0.443306 5.540350 -4.311623
v 0.447605 5.539763 -4.312199
v 0.450891 5.539763 -4.315466
v 0.451490 5.540350 -4.319765
v 0.449975 5.538853 -4.313103
v 0.447717 5.532188 -4.309109
v 0.447830 5.536716 -4.310169
v 0.443299 5.536605 -4.309120
v 0.451469 5.532188 -4.311602
v 0.450883 5.536487 -4.312191
v 0.453993 5.536605 -4.319757
v 0.452922 5.536716 -4.315231
v 0.453981 5.532188 -4.315340
v 0.443327 2.502442 -4.319785
v 0.447746 2.503321 -4.319774
v 0.447842 2.504382 -4.315246
v 0.443316 2.503321 -4.315368
v 0.451490 2.505824 -4.319765
v 0.450891 2.506411 -4.315467
v 0.447605 2.506411 -4.312200
v 0.443306 2.505824 -4.311623
v 0.449976 2.507321 -4.313103
v 0.453981 2.513986 -4.315341
v 0.452920 2.509458 -4.315232
v 0.453993 2.509569 -4.319758
v 0.451469 2.513986 -4.311602
v 0.450884 2.509688 -4.312191
v 0.443299 2.509569 -4.309120
v 0.447830 2.509458 -4.310170
v 0.447718 2.513986 -4.309109
v 0.443786 2.502442 -4.500112
v 0.448203 2.503321 -4.500101
v 0.451949 2.505824 -4.500091
v 0.454450 2.509569 -4.500084
v 0.448203 5.542853 -4.500100
v 0.451948 5.540350 -4.500090
v 0.454451 5.536605 -4.500083
v -1.696745 2.509569 -4.505556
v -1.694242 2.505824 -4.505548
v -1.690497 2.503321 -4.505539
v -1.686081 2.502442 -4.505528
v -1.690499 5.542853 -4.505538
v -1.694243 5.540350 -4.505548
v -1.696743 5.536605 -4.505554
vt 0.059794 0.005367
vt 0.059794 0.972821
vt 0.001992 0.972821
vt 0.001992 0.005367
vt 0.139578 0.003400
vt 0.822285 0.003400
vt 0.822285 0.970854
vt 0.139578 0.970854
vt 0.837349 0.687080
vt 0.835613 0.004373
vt 0.893414 0.004226
vt 0.895150 0.686933
vt 0.073576 0.972821
vt 0.073576 0.005367
vt 0.131378 0.005367
vt 0.131377 0.972821
vt 0.960024 0.687080
vt 0.961440 0.687083
vt 0.961472 0.688535
vt 0.960020 0.688496
vt 0.962640 0.687086
vt 0.962449 0.688464
vt 0.059800 0.001949
vt 0.061251 0.002289
vt 0.061175 0.002939
vt 0.059797 0.002751
vt 0.962155 0.689222
vt 0.961395 0.689512
vt 0.138162 0.003400
vt 0.138128 0.001949
vt 0.139578 0.001984
vt 0.063218 0.005367
vt 0.062413 0.005367
vt 0.062225 0.003989
vt 0.062878 0.003916
vt 0.963443 0.687089
vt 0.963099 0.688539
vt 0.973220 0.002024
vt 0.973294 0.002999
vt 0.972535 0.002706
vt 0.972243 0.001949
vt 0.059795 0.003951
vt 0.061247 0.003916
vt 0.061210 0.005367
vt 0.061934 0.003231
vt 0.061211 0.972821
vt 0.061247 0.974272
vt 0.059795 0.974237
vt 0.062413 0.972821
vt 0.062225 0.974199
vt 0.061175 0.975249
vt 0.059797 0.975437
vt 0.061934 0.974957
vt 0.139578 0.972270
vt 0.138128 0.972305
vt 0.138162 0.970854
vt 0.833930 0.687089
vt 0.834732 0.687087
vt 0.834924 0.688464
vt 0.834274 0.688539
vt 0.063218 0.972821
vt 0.062878 0.974272
vt 0.980555 0.002024
vt 0.981531 0.001949
vt 0.981239 0.002707
vt 0.980481 0.003000
vt 0.837352 0.688496
vt 0.835901 0.688535
vt 0.835932 0.687084
vt 0.059800 0.976239
vt 0.061251 0.975900
vt 0.835977 0.689512
vt 0.835218 0.689222
vt 0.834196 0.004376
vt 0.834157 0.002926
vt 0.835609 0.002957
vt 0.832996 0.004380
vt 0.833181 0.003002
vt 0.073581 0.976239
vt 0.072130 0.975900
vt 0.072201 0.975249
vt 0.073578 0.975437
vt 0.833471 0.002242
vt 0.834228 0.001949
vt 0.823701 0.970854
vt 0.823737 0.972305
vt 0.822285 0.972270
vt 0.070163 0.972821
vt 0.070962 0.972821
vt 0.071151 0.974199
vt 0.070503 0.974272
vt 0.832194 0.004382
vt 0.832530 0.002930
vt 0.988793 0.002927
vt 0.988719 0.001949
vt 0.989478 0.002240
vt 0.989769 0.002999
vt 0.073576 0.974237
vt 0.072126 0.974272
vt 0.072160 0.972821
vt 0.071443 0.974957
vt 0.961760 0.004373
vt 0.961764 0.002957
vt 0.963215 0.002926
vt 0.963176 0.004377
vt 0.073581 0.001949
vt 0.073579 0.002751
vt 0.072201 0.002939
vt 0.072130 0.002289
vt 0.964192 0.003002
vt 0.964377 0.004380
vt 0.963144 0.001949
vt 0.963902 0.002242
vt 0.072160 0.005367
vt 0.072126 0.003916
vt 0.073576 0.003951
vt 0.070962 0.005367
vt 0.071151 0.003989
vt 0.071443 0.003231
vt 0.822285 0.001984
vt 0.823737 0.001949
vt 0.823701 0.003400
vt 0.965179 0.004382
vt 0.964842 0.002930
vt 0.070163 0.005367
vt 0.070503 0.003916
vt 0.997934 0.002927
vt 0.996957 0.003000
vt 0.997249 0.002240
vt 0.998008 0.001949
vt 0.903958 0.004226
vt 0.903962 0.002810
vt 0.131384 0.001949
vt 0.131380 0.002751
vt 0.131378 0.003951
vt 0.893411 0.002810
vt 0.131383 0.976239
vt 0.131380 0.975437
vt 0.131378 0.974237
vt 0.001993 0.003951
vt 0.001995 0.002751
vt 0.001998 0.001949
vt 0.902219 0.688349
vt 0.902222 0.686933
vt 0.895154 0.688349
vt 0.001998 0.976239
vt 0.001995 0.975437
vt 0.001993 0.974237
vn -1.000000 -0.000000 -0.002600
vn -0.002500 -0.000000 1.000000
vn 0.000000 1.000000 -0.000000
vn 1.000000 -0.000000 0.002500
vn -0.205400 -0.957000 0.204600
vn -0.183100 -0.815100 0.549600
vn -0.550600 -0.815000 0.180400
vn -0.494300 -0.716700 0.492000
vn -0.207300 -0.204900 0.956600
vn -0.552000 -0.182000 0.813800
vn -0.183800 -0.550000 0.814700
vn -0.495000 -0.493100 0.715400
vn -0.957600 -0.205000 0.202400
vn -0.815500 -0.550200 0.179800
vn -0.816500 -0.182000 0.547900
vn -0.717900 -0.493100 0.491400
vn -0.957700 0.204800 0.202300
vn -0.816600 0.181700 0.547900
vn -0.815500 0.550200 0.179600
vn -0.717800 0.493500 0.491200
vn -0.207300 0.205000 0.956500
vn -0.183900 0.549900 0.814700
vn -0.551800 0.181900 0.813900
vn -0.494700 0.493300 0.715500
vn -0.205600 0.957000 0.204600
vn -0.550400 0.815100 0.180400
vn -0.183200 0.815100 0.549600
vn -0.494300 0.716700 0.492000
vn 0.204500 0.957000 0.205600
vn 0.180500 0.815000 0.550600
vn 0.549500 0.815100 0.183400
vn 0.491600 0.717000 0.494300
vn 0.202600 0.205000 0.957500
vn 0.547800 0.181900 0.816600
vn 0.179800 0.550000 0.815600
vn 0.491000 0.493200 0.718100
vn 0.956600 0.204700 0.207200
vn 0.814500 0.550200 0.183900
vn 0.813600 0.181700 0.552300
vn 0.715300 0.493300 0.495000
vn 0.204500 -0.957000 0.205700
vn 0.549600 -0.815000 0.183500
vn 0.180600 -0.815100 0.550500
vn 0.491300 -0.717200 0.494200
vn 0.956600 -0.204900 0.207400
vn 0.813800 -0.181700 0.552000
vn 0.814600 -0.550100 0.184100
vn 0.715700 -0.493000 0.494700
vn 0.202700 -0.205100 0.957500
vn 0.179900 -0.550000 0.815500
vn 0.547700 -0.182000 0.816600
vn 0.490800 -0.493000 0.718400
vn -0.000500 -0.980800 0.195200
vn -0.001400 -0.831400 0.555600
vn -0.002100 -0.555700 0.831400
vn -0.002500 -0.195100 0.980800
vn -0.197300 -0.000000 0.980300
vn -0.557700 -0.000000 0.830100
vn -0.832800 -0.000000 0.553500
vn -0.981300 0.000000 0.192400
vn -0.002500 0.195200 0.980800
vn -0.002100 0.555500 0.831500
vn -0.001400 0.831300 0.555800
vn -0.000500 0.980800 0.195200
vn 0.192700 -0.000000 0.981300
vn 0.553400 -0.000000 0.832900
vn 0.830000 -0.000000 0.557700
vn 0.980300 -0.000000 0.197600
vn 0.195100 -0.980800 0.000500
vn 0.555700 -0.831400 0.001400
vn 0.831500 -0.555500 0.002100
vn 0.980800 -0.195200 0.002500
vn 0.195200 0.980800 0.000500
vn 0.555700 0.831400 0.001400
vn 0.831400 0.555700 0.002100
vn 0.980800 0.195100 0.002500
vn -0.980800 -0.194800 -0.002500
vn -0.831300 -0.555800 -0.002100
vn -0.555800 -0.831300 -0.001400
vn -0.195200 -0.980800 -0.000500
vn -0.195200 0.980800 -0.000500
vn -0.555700 0.831400 -0.001400
vn -0.831600 0.555400 -0.002100
vn -0.980800 0.195200 -0.002500
vn 0.000000 -1.000000 0.000000
usemtl breakfast_room:Artwork
s 1
f 1/1/1 2/2/1 3/3/1 4/4/1
f 5/5/2 6/6/2 7/7/2 8/8/2
f 9/9/3 10/10/3 11/11/3 12/12/3
f 13/13/4 14/14/4 15/15/4 16/16/4
f 17/17/5 18/18/5 19/19/5 20/20/5
f 18/18/6 21/21/6 22/22/6 19/19/6
f 20/23/7 19/24/7 23/25/7 24/26/7
f 19/19/8 22/22/8 25/27/8 23/28/8
f 5/5/9 26/29/9 27/30/9 28/31/9
f 26/32/10 29/33/10 30/34/10 27/35/10
f 28/36/11 27/37/11 22/22/11 21/21/11
f 27/38/12 30/39/12 25/40/12 22/41/12
f 1/1/13 31/42/13 32/43/13 33/44/13
f 31/42/14 24/26/14 23/25/14 32/43/14
f 33/44/15 32/43/15 30/34/15 29/33/15
f 32/43/16 23/25/16 25/45/16 30/34/16
f 2/2/17 34/46/17 35/47/17 36/48/17
f 34/46/18 37/49/18 38/50/18 35/47/18
f 36/48/19 35/47/19 39/51/19 40/52/19
f 35/47/20 38/50/20 41/53/20 39/51/20
f 8/8/21 42/54/21 43/55/21 44/56/21
f 42/57/22 45/58/22 46/59/22 43/60/22
f 44/61/23 43/62/23 38/50/23 37/49/23
f 43/63/24 46/64/24 41/65/24 38/66/24
f 9/9/25 47/67/25 48/68/25 49/69/25
f 47/70/26 40/52/26 39/51/26 48/71/26
f 49/69/27 48/68/27 46/59/27 45/58/27
f 48/68/28 39/72/28 41/73/28 46/59/28
f 10/10/29 50/74/29 51/75/29 52/76/29
f 50/74/30 53/77/30 54/78/30 51/75/30
f 52/79/31 51/80/31 55/81/31 56/82/31
f 51/75/32 54/78/32 57/83/32 55/84/32
f 7/7/33 58/85/33 59/86/33 60/87/33
f 58/88/34 61/89/34 62/90/34 59/91/34
f 60/92/35 59/93/35 54/78/35 53/77/35
f 59/94/36 62/95/36 57/96/36 54/97/36
f 13/13/37 63/98/37 64/99/37 65/100/37
f 63/98/38 56/82/38 55/81/38 64/99/38
f 65/100/39 64/99/39 62/90/39 61/89/39
f 64/99/40 55/81/40 57/101/40 62/90/40
f 66/102/41 67/103/41 68/104/41 69/105/41
f 67/106/42 70/107/42 71/108/42 68/109/42
f 69/105/43 68/104/43 72/110/43 73/111/43
f 68/104/44 71/112/44 74/113/44 72/110/44
f 14/14/45 75/114/45 76/115/45 77/116/45
f 75/114/46 78/117/46 79/118/46 76/115/46
f 77/116/47 76/115/47 71/108/47 70/107/47
f 76/115/48 79/118/48 74/119/48 71/108/48
f 6/6/49 80/120/49 81/121/49 82/122/49
f 80/123/50 73/111/50 72/110/50 81/124/50
f 82/125/51 81/126/51 79/118/51 78/117/51
f 81/127/52 72/128/52 74/129/52 79/130/52
f 17/17/53 66/102/53 69/105/53 18/18/53
f 18/18/54 69/105/54 73/111/54 21/21/54
f 21/21/55 73/111/55 80/123/55 28/36/55
f 28/31/56 80/120/56 6/6/56 5/5/56
f 5/5/57 8/8/57 44/56/57 26/29/57
f 26/32/58 44/61/58 37/49/58 29/33/58
f 29/33/59 37/49/59 34/46/59 33/44/59
f 33/44/60 34/46/60 2/2/60 1/1/60
f 8/8/61 7/7/61 60/87/61 42/54/61
f 42/57/62 60/92/62 53/77/62 45/58/62
f 45/58/63 53/77/63 50/74/63 49/69/63
f 49/69/64 50/74/64 10/10/64 9/9/64
f 7/7/65 6/6/65 82/122/65 58/85/65
f 58/88/66 82/125/66 78/117/66 61/89/66
f 61/89/67 78/117/67 75/114/67 65/100/67
f 65/100/68 75/114/68 14/14/68 13/13/68
f 66/102/69 83/131/69 84/132/69 67/103/69
f 67/106/70 84/133/70 85/134/70 70/107/70
f 70/107/71 85/134/71 86/135/71 77/116/71
f 77/116/72 86/135/72 15/15/72 14/14/72
f 11/11/73 10/10/73 52/76/73 87/136/73
f 87/137/74 52/79/74 56/82/74 88/138/74
f 88/138/75 56/82/75 63/98/75 89/139/75
f 89/139/76 63/98/76 13/13/76 16/16/76
f 1/1/77 4/4/77 90/140/77 31/42/77
f 31/42/78 90/140/78 91/141/78 24/26/78
f 24/26/79 91/141/79 92/142/79 20/23/79
f 20/20/80 92/143/80 93/144/80 17/17/80
f 9/9/81 12/12/81 94/145/81 47/67/81
f 47/70/82 94/146/82 95/147/82 40/52/82
f 40/52/83 95/147/83 96/148/83 36/48/83
f 36/48/84 96/148/84 3/3/84 2/2/84
f 66/102/85 17/17/85 93/144/85 83/131/85
